<svg width="21" height="20" viewBox="0 0 21 20" fill="none" xmlns="http://www.w3.org/2000/svg">
<path d="M19.9158 5.09586C19.9114 5.09076 19.9069 5.08576 19.9022 5.08092L15.9579 1.22809C15.9219 1.19203 15.8799 1.16406 15.8342 1.14568L12.9809 0.0248512C12.7862 -0.0528235 12.5712 0.0576622 12.5005 0.271577C12.4877 0.310157 12.4803 0.350591 12.4785 0.391591C12.4785 0.482246 12.3547 2.57143 10.4538 2.60439C8.5416 2.57143 8.42162 0.482246 8.41787 0.391591C8.40681 0.164336 8.23021 -0.01002 8.02343 0.00213599C7.98791 0.00424783 7.9528 0.0118711 7.9192 0.0248512L5.06967 1.15804C5.02392 1.17643 4.98193 1.2044 4.94594 1.24045L1.02783 5.08092C0.877712 5.23766 0.871619 5.4985 1.01424 5.66348C1.01864 5.66858 1.02319 5.67358 1.02783 5.67842L4.14732 9.14391V18.6215C4.14732 18.849 4.3152 19.0335 4.52226 19.0335H16.4078C16.6149 19.0335 16.7827 18.849 16.7827 18.6215V9.14391L19.9022 5.67842C20.0524 5.52168 20.0584 5.26089 19.9158 5.09586ZM16.7715 7.96952V6.05752C16.7715 5.82996 16.6036 5.64545 16.3966 5.64545C16.1895 5.64545 16.0216 5.82996 16.0216 6.05752V18.1888H4.8822V6.05752C4.8822 5.82996 4.71432 5.64545 4.50726 5.64545C4.3002 5.64545 4.13232 5.82996 4.13232 6.05752V7.97364L1.82645 5.40646L5.39586 1.89564L7.74298 0.964366C8.03374 2.61088 9.48396 3.68664 10.9821 3.36708C12.0885 3.13107 12.9536 2.18033 13.1683 0.964366L15.5155 1.89564L19.0736 5.40646L16.7715 7.96952Z" fill="#272744"/>
</svg>
