<svg width="18" height="23" viewBox="0 0 18 23" fill="none" xmlns="http://www.w3.org/2000/svg">
<path d="M14.8959 12.5623C14.9067 11.7276 15.1285 10.9093 15.5406 10.1833C15.9527 9.45737 16.5418 8.84746 17.2529 8.41033C16.8012 7.76515 16.2053 7.23417 15.5125 6.85957C14.8197 6.48496 14.0491 6.27705 13.2619 6.25233C11.5829 6.07633 9.95492 7.25233 9.09892 7.25233C8.22692 7.25233 6.90892 6.26533 5.49092 6.29433C4.57321 6.32395 3.67883 6.5908 2.89493 7.06889C2.11103 7.54697 1.46435 8.21998 1.01792 9.02233C-0.916083 12.3703 0.526917 17.2913 2.37892 19.9983C3.30592 21.3233 4.38892 22.8043 5.80692 22.7513C7.19392 22.6933 7.71192 21.8673 9.38592 21.8673C11.0449 21.8673 11.5309 22.7513 12.9769 22.7183C14.4649 22.6943 15.4029 21.3873 16.2979 20.0493C16.9629 19.1066 17.4748 18.0647 17.8149 16.9623C16.9501 16.5965 16.2122 15.9842 15.6931 15.2017C15.174 14.4193 14.8967 13.5013 14.8959 12.5623Z" fill="#272744"/>
<path d="M12.164 4.47342C12.9758 3.49921 13.3758 2.24685 13.279 0.982422C12.0389 1.1126 10.8935 1.70532 10.071 2.64242C9.66883 3.10001 9.3608 3.63237 9.1645 4.20907C8.96821 4.78577 8.8875 5.39551 8.92699 6.00342C9.54712 6.00982 10.1606 5.87545 10.7213 5.61043C11.282 5.34542 11.7753 4.95666 12.164 4.47342Z" fill="#272744"/>
</svg>
