<svg width="32" height="32" viewBox="0 0 32 32" fill="none" xmlns="http://www.w3.org/2000/svg">
<g clip-path="url(#clip0_3253:44846)">
<path d="M29.0563 24.9382C28.5723 26.0562 27.9995 27.0853 27.3358 28.0315C26.4312 29.3213 25.6905 30.2141 25.1196 30.7099C24.2347 31.5237 23.2866 31.9405 22.2713 31.9642C21.5424 31.9642 20.6635 31.7568 19.6403 31.336C18.6137 30.9173 17.6704 30.7099 16.8078 30.7099C15.9031 30.7099 14.9329 30.9173 13.8951 31.336C12.8557 31.7568 12.0184 31.976 11.3782 31.9978C10.4046 32.0392 9.43418 31.6106 8.46552 30.7099C7.84727 30.1706 7.07396 29.2462 6.14757 27.9366C5.15363 26.5382 4.33647 24.9165 3.69629 23.0677C3.01068 21.0707 2.66699 19.1369 2.66699 17.2648C2.66699 15.1202 3.13038 13.2706 4.05855 11.7206C4.78801 10.4756 5.75845 9.49354 6.97303 8.77257C8.18761 8.05161 9.49996 7.68421 10.9132 7.66071C11.6866 7.66071 12.7006 7.89991 13.9609 8.37002C15.2175 8.84171 16.0244 9.08091 16.3782 9.08091C16.6426 9.08091 17.539 8.80122 19.0586 8.2436C20.4956 7.72648 21.7084 7.51237 22.7019 7.59671C25.3942 7.81399 27.4168 8.87529 28.762 10.7873C26.3541 12.2462 25.1631 14.2896 25.1868 16.911C25.2085 18.9528 25.9492 20.6519 27.405 22.001C28.0647 22.6272 28.8015 23.1111 29.6212 23.4548C29.4434 23.9703 29.2558 24.4642 29.0563 24.9382ZM22.8817 0.640671C22.8817 2.24104 22.297 3.73529 21.1316 5.11836C19.7252 6.76256 18.0241 7.71266 16.1794 7.56274C16.1559 7.37074 16.1423 7.16867 16.1423 6.95633C16.1423 5.41998 16.8111 3.77579 17.9988 2.43143C18.5918 1.75076 19.346 1.18479 20.2605 0.733309C21.1731 0.288562 22.0362 0.042607 22.8481 0.000488281C22.8718 0.214432 22.8817 0.42839 22.8817 0.64065V0.640671Z" fill="black"/>
</g>
<defs>
<clipPath id="clip0_3253:44846">
<rect width="32" height="32" fill="white"/>
</clipPath>
</defs>
</svg>
