<svg width="17" height="16" viewBox="0 0 17 16" fill="none" xmlns="http://www.w3.org/2000/svg">
<path d="M13.6517 6.92927C14.0422 6.53875 14.0422 5.90559 13.6517 5.51506C13.2611 5.12454 12.628 5.12454 12.2374 5.51506L13.6517 6.92927ZM8.50011 10.6666L7.793 11.3737L8.50011 12.0808L9.20722 11.3737L8.50011 10.6666ZM4.76277 5.51506C4.37225 5.12454 3.73908 5.12454 3.34856 5.51506C2.95803 5.90559 2.95803 6.53875 3.34856 6.92927L4.76277 5.51506ZM12.2374 5.51506L7.793 9.95951L9.20722 11.3737L13.6517 6.92927L12.2374 5.51506ZM9.20722 9.95951L4.76277 5.51506L3.34856 6.92927L7.793 11.3737L9.20722 9.95951Z" fill="white"/>
</svg>
