<svg width="24" height="24" viewBox="0 0 24 24" fill="none" xmlns="http://www.w3.org/2000/svg">
<path d="M20.9999 11.44V8.56C21.004 8.49037 20.9942 8.42063 20.9713 8.35478C20.9483 8.28892 20.9126 8.22824 20.8662 8.17621C20.8197 8.12419 20.7635 8.08184 20.7006 8.0516C20.6378 8.02137 20.5696 8.00383 20.4999 8H3.49992C3.43028 8.00383 3.36208 8.02137 3.29924 8.0516C3.23639 8.08184 3.18013 8.12419 3.13368 8.17621C3.08723 8.22824 3.0515 8.28892 3.02855 8.35478C3.00559 8.42063 2.99587 8.49037 2.99992 8.56V11.44C2.99587 11.5096 3.00559 11.5794 3.02855 11.6452C3.0515 11.7111 3.08723 11.7718 3.13368 11.8238C3.18013 11.8758 3.23639 11.9182 3.29924 11.9484C3.36208 11.9786 3.43028 11.9962 3.49992 12H20.4999C20.5696 11.9962 20.6378 11.9786 20.7006 11.9484C20.7635 11.9182 20.8197 11.8758 20.8662 11.8238C20.9126 11.7718 20.9483 11.7111 20.9713 11.6452C20.9942 11.5794 21.004 11.5096 20.9999 11.44V11.44Z" stroke="#272744" stroke-width="2" stroke-miterlimit="10"/>
<path d="M20 12L18.09 20.58C18.0696 20.6941 18.011 20.7979 17.9238 20.8743C17.8365 20.9506 17.7258 20.995 17.61 21H6.41C6.29296 20.9954 6.18089 20.9514 6.09196 20.8752C6.00303 20.799 5.94244 20.695 5.92 20.58L4 12" stroke="#272744" stroke-width="2" stroke-miterlimit="10"/>
<path d="M18.0199 7.86L15.1499 3" stroke="#272744" stroke-width="2" stroke-miterlimit="10" stroke-linecap="round"/>
<path d="M6.00977 7.86L8.88977 3" stroke="#272744" stroke-width="2" stroke-miterlimit="10" stroke-linecap="round"/>
<path d="M14.1499 16V17" stroke="#272744" stroke-width="2" stroke-miterlimit="10" stroke-linecap="round"/>
<path d="M9.89014 16V17" stroke="#272744" stroke-width="2" stroke-miterlimit="10" stroke-linecap="round"/>
</svg>
