<svg width="24" height="24" viewBox="0 0 24 24" fill="none" xmlns="http://www.w3.org/2000/svg">
<path d="M8.0102 13.8998C9.97633 13.8998 11.5702 12.3059 11.5702 10.3398C11.5702 8.37365 9.97633 6.77979 8.0102 6.77979C6.04406 6.77979 4.4502 8.37365 4.4502 10.3398C4.4502 12.3059 6.04406 13.8998 8.0102 13.8998Z" stroke="#272744" stroke-width="2" stroke-miterlimit="10"/>
<path d="M10.3799 13C10.4825 13.0417 10.5799 13.0954 10.6699 13.16C11.3145 13.5313 11.86 14.0527 12.2599 14.68C12.5429 15.0986 12.7904 15.5402 12.9999 16C13.4262 16.9582 13.6247 18.0022 13.5799 19.05C13.5799 20.19 11.8899 20.75 10.3799 21.05C8.81323 21.3405 7.20653 21.3405 5.63988 21.05C4.11988 20.77 2.43988 20.21 2.43988 19.05C2.37629 17.4879 2.83746 15.9495 3.74988 14.68C4.22024 13.9627 4.8724 13.383 5.63988 13" stroke="#272744" stroke-width="2" stroke-miterlimit="10"/>
<path d="M16.0899 9.17977C17.8627 9.17977 19.2999 7.7426 19.2999 5.96977C19.2999 4.19693 17.8627 2.75977 16.0899 2.75977C14.317 2.75977 12.8799 4.19693 12.8799 5.96977C12.8799 7.7426 14.317 9.17977 16.0899 9.17977Z" stroke="#272744" stroke-width="2" stroke-miterlimit="10"/>
<path d="M10.7502 12.6001C10.7502 12.7801 10.7002 12.9601 10.6802 13.1501" stroke="#272744" stroke-width="2" stroke-miterlimit="10"/>
<path d="M11.5601 10.5302C11.6676 10.3262 11.7878 10.1292 11.9201 9.94023C12.3894 9.20964 13.05 8.62167 13.8301 8.24023" stroke="#272744" stroke-width="2" stroke-miterlimit="10"/>
<path d="M18.34 8.24023C19.1162 8.62747 19.7754 9.2142 20.25 9.94023C21.1543 11.1829 21.6124 12.6946 21.55 14.2302C21.55 15.3602 19.89 15.9102 18.41 16.1702C16.8702 16.4602 15.2898 16.4602 13.75 16.1702C13.4968 16.1286 13.2464 16.0718 13 16.0002" stroke="#272744" stroke-width="2" stroke-miterlimit="10"/>
</svg>
