<svg width="22" height="26" viewBox="0 0 22 26" fill="none" xmlns="http://www.w3.org/2000/svg">
<path d="M0.534112 1.31826C0.223976 1.68876 0.0669218 2.16365 0.0950062 2.646V23.6253C0.0669218 24.1077 0.223976 24.5826 0.534112 24.9531L0.604292 25.0214L12.3567 13.2784V12.9939L0.607138 1.24902L0.534112 1.31826Z" fill="url(#paint0_linear_3628:1061)"/>
<path d="M16.2728 17.1944L12.3569 13.2785V12.994L16.2738 9.07715L16.362 9.12741L21.0025 11.7639C22.3302 12.517 22.3302 13.7489 21.0025 14.5029L16.362 17.1394L16.2728 17.1944Z" fill="url(#paint1_linear_3628:1061)"/>
<path d="M16.3616 17.1447L12.3566 13.1387L0.533936 24.9585C0.804071 25.1965 1.14896 25.3326 1.50887 25.3432C1.86878 25.3538 2.22106 25.2381 2.50469 25.0163L16.3588 17.1447" fill="url(#paint2_linear_3628:1061)"/>
<path d="M16.362 9.13233L2.50786 1.26069C2.22412 1.03901 1.87178 0.923542 1.51187 0.934281C1.15196 0.945019 0.807132 1.08129 0.537109 1.31949L12.3569 13.1383L16.362 9.13233Z" fill="url(#paint3_linear_3628:1061)"/>
<path opacity="0.2" d="M16.2774 17.0566L2.50773 24.878C2.23517 25.0845 1.90303 25.1972 1.56108 25.1991C1.21912 25.2009 0.885765 25.092 0.610952 24.8884L0.540771 24.9586L0.610952 25.0269C0.885582 25.2309 1.21901 25.3401 1.56108 25.3382C1.90315 25.3363 2.23536 25.2234 2.50773 25.0165L16.3618 17.1448L16.2774 17.0566Z" fill="black"/>
<path opacity="0.12" d="M0.534112 24.8199C0.223976 24.4494 0.0669218 23.9745 0.0950062 23.4922V23.6307C0.0669218 24.113 0.223976 24.5879 0.534112 24.9584L0.604292 24.8882L0.534112 24.8199Z" fill="black"/>
<path opacity="0.12" d="M21.0022 14.3687L16.2773 17.0565L16.3655 17.1447L21.006 14.5072C21.279 14.3889 21.5152 14.1995 21.69 13.9588C21.8648 13.7181 21.9719 13.4348 21.9999 13.1387C21.9409 13.4073 21.82 13.6583 21.6468 13.8719C21.4736 14.0855 21.2529 14.2556 21.0022 14.3687Z" fill="black"/>
<path opacity="0.25" d="M2.50776 1.39922L21.0014 11.9074C21.2516 12.0213 21.4718 12.1921 21.6444 12.4061C21.8169 12.6202 21.9371 12.8716 21.9953 13.1403C21.9676 12.8439 21.8607 12.5604 21.6858 12.3195C21.511 12.0785 21.2746 11.889 21.0014 11.7708L2.50776 1.26265C1.18001 0.509632 0.0979004 1.13462 0.0979004 2.65299V2.79146C0.0979004 1.27119 1.18191 0.646201 2.50776 1.39922Z" fill="white"/>
<defs>
<linearGradient id="paint0_linear_3628:1061" x1="11.3142" y1="280.717" x2="-7.51217" y2="275.703" gradientUnits="userSpaceOnUse">
<stop stop-color="#00A0FF"/>
<stop offset="0.007" stop-color="#00A1FF"/>
<stop offset="0.26" stop-color="#00BEFF"/>
<stop offset="0.512" stop-color="#00D2FF"/>
<stop offset="0.76" stop-color="#00DFFF"/>
<stop offset="1" stop-color="#00E3FF"/>
</linearGradient>
<linearGradient id="paint1_linear_3628:1061" x1="22.731" y1="270.202" x2="-0.225009" y2="270.202" gradientUnits="userSpaceOnUse">
<stop stop-color="#FFE000"/>
<stop offset="0.409" stop-color="#FFBD00"/>
<stop offset="0.775" stop-color="#FFA500"/>
<stop offset="1" stop-color="#FF9C00"/>
</linearGradient>
<linearGradient id="paint2_linear_3628:1061" x1="14.1774" y1="268.056" x2="-0.932456" y2="242.625" gradientUnits="userSpaceOnUse">
<stop stop-color="#FF3A44"/>
<stop offset="1" stop-color="#C31162"/>
</linearGradient>
<linearGradient id="paint3_linear_3628:1061" x1="-2.43797" y1="289.026" x2="4.31423" y2="277.669" gradientUnits="userSpaceOnUse">
<stop stop-color="#32A071"/>
<stop offset="0.068" stop-color="#2DA771"/>
<stop offset="0.476" stop-color="#15CF74"/>
<stop offset="0.801" stop-color="#06E775"/>
<stop offset="1" stop-color="#00F076"/>
</linearGradient>
</defs>
</svg>
