<svg width="32" height="32" viewBox="0 0 32 32" fill="none" xmlns="http://www.w3.org/2000/svg">
<g clip-path="url(#clip0_3253:44843)">
<path d="M31.6883 16.3683C31.6883 15.2807 31.6002 14.1872 31.412 13.1172H16.3203V19.2785H24.9626C24.604 21.2656 23.4517 23.0235 21.7644 24.1405V28.1383H26.9204C29.9481 25.3516 31.6883 21.2362 31.6883 16.3683Z" fill="#4285F4"/>
<path d="M16.3195 32.0009C20.6348 32.0009 24.2739 30.5841 26.9254 28.1384L21.7694 24.1406C20.3349 25.1165 18.483 25.6691 16.3254 25.6691C12.1512 25.6691 8.61197 22.853 7.34208 19.0669H2.02148V23.1882C4.73763 28.5911 10.2699 32.0009 16.3195 32.0009Z" fill="#34A853"/>
<path d="M7.33703 19.0671C6.66681 17.08 6.66681 14.9282 7.33703 12.9411V8.81982H2.02231C-0.247022 13.3409 -0.247022 18.6673 2.02231 23.1884L7.33703 19.0671Z" fill="#FBBC04"/>
<path d="M16.3195 6.33288C18.6006 6.29761 20.8052 7.15596 22.4573 8.73156L27.0253 4.16349C24.1328 1.44734 20.2938 -0.0459547 16.3195 0.00107822C10.2699 0.00107822 4.73763 3.41096 2.02148 8.81974L7.3362 12.941C8.60021 9.14897 12.1453 6.33288 16.3195 6.33288Z" fill="#EA4335"/>
</g>
<defs>
<clipPath id="clip0_3253:44843">
<rect width="32" height="32" fill="white"/>
</clipPath>
</defs>
</svg>
