<svg width="33" height="32" viewBox="0 0 33 32" fill="none" xmlns="http://www.w3.org/2000/svg">
<circle cx="16.5" cy="16" r="16" fill="#F9F9F9"/>
<circle cx="16.5" cy="16.0002" r="12.8" fill="white"/>
<path d="M6.33043 8.17725C5.31645 9.49512 4.57164 10.9996 4.13843 12.605H10.7571L6.33043 8.17725Z" fill="#0052B4"/>
<path d="M28.708 12.6039C28.2746 10.9989 27.5298 9.49482 26.516 8.17725L22.0894 12.6039H28.708Z" fill="#0052B4"/>
<path d="M4.13843 19.2432C4.5718 20.8482 5.3166 22.3523 6.33043 23.6698L10.7571 19.2432H4.13843Z" fill="#0052B4"/>
<path d="M24.1693 5.83067C22.8518 4.81682 21.3477 4.07202 19.7427 3.63867V10.2573L24.1693 5.83067Z" fill="#0052B4"/>
<path d="M8.677 26.0165C9.99457 27.0303 11.4987 27.7751 13.1037 28.2085V21.5898L8.677 26.0165Z" fill="#0052B4"/>
<path d="M13.1037 3.63867C11.4987 4.07204 9.99457 4.81684 8.677 5.83067L13.1037 10.2573V3.63867Z" fill="#0052B4"/>
<path d="M19.7427 28.2085C21.3477 27.7751 22.8518 27.0303 24.1694 26.0165L19.7427 21.5898V28.2085Z" fill="#0052B4"/>
<path d="M22.0894 19.2432L26.516 23.6698C27.5298 22.3523 28.2746 20.8482 28.708 19.2432H22.0894Z" fill="#0052B4"/>
<path d="M29.0397 14.2647H18.0839V3.30791C16.9821 3.16429 15.8663 3.16429 14.7645 3.30791V14.2647H3.80767C3.66405 15.3665 3.66405 16.4824 3.80767 17.5842H14.7645V28.5399C15.8663 28.6835 16.9821 28.6835 18.0839 28.5399V17.5842H29.0397C29.1833 16.4824 29.1833 15.3665 29.0397 14.2647Z" fill="#D80027"/>
<path d="M19.7437 19.2441L25.4216 24.922C25.6826 24.661 25.9315 24.3887 26.1683 24.1049L21.3075 19.2441H19.7427H19.7437Z" fill="#D80027"/>
<path d="M13.1027 19.2441L7.4248 24.922C7.68578 25.183 7.95814 25.4319 8.24187 25.6687L13.1027 20.8079V19.2441Z" fill="#D80027"/>
<path d="M13.1057 12.6029L7.42782 6.92822C7.16684 7.1892 6.91795 7.46155 6.68115 7.74529L11.5409 12.6029H13.1057Z" fill="#D80027"/>
<path d="M19.7437 12.6062L25.4215 6.9283C25.1605 6.66733 24.8882 6.41844 24.6045 6.18164L19.7437 11.0424V12.6062Z" fill="#D80027"/>
</svg>
