<svg width="24" height="24" viewBox="0 0 24 24" fill="none" xmlns="http://www.w3.org/2000/svg">
<path d="M2.14014 3.9502H21.8601" stroke="#272744" stroke-width="2" stroke-miterlimit="10" stroke-linecap="round"/>
<path d="M16.2202 2.1499V5.6099L20.8102 9.1599" stroke="#272744" stroke-width="2" stroke-miterlimit="10" stroke-linecap="round"/>
<path d="M10.8301 2.1499V6.3899" stroke="#272744" stroke-width="2" stroke-miterlimit="10" stroke-linecap="round"/>
<path d="M2.87995 13.0601L4.53995 15.2401C4.57244 15.2839 4.61334 15.3208 4.66025 15.3486C4.70716 15.3763 4.75914 15.3945 4.81315 15.4019C4.86716 15.4094 4.92211 15.406 4.97479 15.3919C5.02747 15.3779 5.07682 15.3535 5.11995 15.3201L6.22995 14.4901C6.28033 14.4535 6.33981 14.4314 6.40191 14.4262C6.464 14.4211 6.52631 14.4331 6.58204 14.461C6.63776 14.4888 6.68476 14.5315 6.7179 14.5842C6.75104 14.637 6.76905 14.6978 6.76995 14.7601V21.4301C6.76995 21.5415 6.8142 21.6484 6.89296 21.7271C6.97173 21.8059 7.07856 21.8501 7.18995 21.8501H14.4599C14.5713 21.8501 14.6782 21.8059 14.7569 21.7271C14.8357 21.6484 14.8799 21.5415 14.8799 21.4301V14.7601C14.8809 14.6978 14.8989 14.637 14.932 14.5842C14.9651 14.5315 15.0121 14.4888 15.0679 14.461C15.1236 14.4331 15.1859 14.4211 15.248 14.4262C15.3101 14.4314 15.3696 14.4535 15.4199 14.4901L16.53 15.3201C16.5739 15.3538 16.624 15.3784 16.6775 15.3925C16.731 15.4067 16.7868 15.4102 16.8416 15.4027C16.8964 15.3953 16.9492 15.3771 16.997 15.3492C17.0448 15.3213 17.0865 15.2842 17.12 15.2401L18.7699 13.0601C18.8033 13.017 18.8277 12.9677 18.8417 12.915C18.8558 12.8623 18.8592 12.8073 18.8517 12.7533C18.8443 12.6993 18.8261 12.6473 18.7984 12.6004C18.7706 12.5535 18.7337 12.5126 18.6899 12.4801L10.8299 6.39014L2.99995 12.4801C2.95305 12.5095 2.91259 12.5481 2.88099 12.5935C2.8494 12.639 2.82733 12.6903 2.81612 12.7445C2.80491 12.7987 2.80478 12.8546 2.81575 12.9089C2.82672 12.9631 2.84856 13.0146 2.87995 13.0601V13.0601Z" stroke="#272744" stroke-width="2" stroke-miterlimit="10" stroke-linecap="round"/>
<path d="M13.66 8.5498C13.5287 9.20151 13.1768 9.78803 12.6635 10.2105C12.1502 10.633 11.507 10.8656 10.8422 10.8691C10.1774 10.8727 9.53176 10.6469 9.01403 10.2299C8.49629 9.81284 8.13816 9.23008 8 8.5798" stroke="#272744" stroke-width="2" stroke-miterlimit="10" stroke-linecap="round"/>
</svg>
