<svg width="10" height="16" viewBox="0 0 10 16" fill="none" xmlns="http://www.w3.org/2000/svg">
<path d="M7.95976 0.626551C8.35029 0.236026 8.98345 0.236026 9.37398 0.626551C9.7645 1.01707 9.7645 1.65024 9.37398 2.04076L7.95976 0.626551ZM2.0002 8.00032L1.2931 8.70743L0.58599 8.00032L1.2931 7.29322L2.0002 8.00032ZM9.37398 13.9599C9.7645 14.3504 9.7645 14.9836 9.37398 15.3741C8.98345 15.7646 8.35029 15.7646 7.95976 15.3741L9.37398 13.9599ZM9.37398 2.04076L2.70731 8.70743L1.2931 7.29322L7.95976 0.626551L9.37398 2.04076ZM2.70731 7.29322L9.37398 13.9599L7.95976 15.3741L1.2931 8.70743L2.70731 7.29322Z" fill="#FF7E27"/>
</svg>
