<svg width="24" height="24" viewBox="0 0 24 24" fill="none" xmlns="http://www.w3.org/2000/svg">
<path d="M17.2 8.00023C17.1883 7.33005 17.0444 6.66879 16.7764 6.05439C16.5085 5.43999 16.1219 4.88456 15.6387 4.41998C15.1555 3.95541 14.5854 3.59083 13.961 3.34719C13.3365 3.10355 12.6701 2.98564 12 3.00023C10.6629 3.02567 9.3846 3.55471 8.42059 4.48164C7.45658 5.40858 6.87783 6.66514 6.8 8.00023C6.8 14.0002 4 16.0602 4 16.0602H20C20 16.0602 17.19 14.0002 17.19 8.00023" stroke="#272744" stroke-width="2" stroke-linecap="round" stroke-linejoin="round"/>
<path d="M14.5899 19.5103C14.3262 19.9649 13.9477 20.3422 13.4922 20.6045C13.0368 20.8669 12.5205 21.0049 11.9949 21.0049C11.4693 21.0049 10.953 20.8669 10.4976 20.6045C10.0421 20.3422 9.66362 19.9649 9.3999 19.5103" stroke="#272744" stroke-width="2" stroke-linecap="round" stroke-linejoin="round"/>
</svg>
