<svg width="24" height="24" viewBox="0 0 24 24" fill="none" xmlns="http://www.w3.org/2000/svg">
<path d="M12.4899 20.3399C12.9026 20.7612 13.4648 21.0028 14.0546 21.0122C14.6443 21.0215 15.214 20.7979 15.6399 20.3899L20.3899 15.6399C20.7979 15.214 21.0215 14.6443 21.0122 14.0546C21.0028 13.4648 20.7612 12.9026 20.3399 12.4899L11.5099 3.65985C11.2713 3.4203 10.9824 3.23681 10.6642 3.12266C10.3459 3.00851 10.0063 2.96656 9.66985 2.99985H4.99985C4.46942 2.99985 3.96071 3.21056 3.58564 3.58564C3.21056 3.96071 2.99985 4.46942 2.99985 4.99985V9.66985C2.96656 10.0063 3.00851 10.3459 3.12266 10.6642C3.23681 10.9824 3.4203 11.2713 3.65985 11.5099L4.10985 11.9599" stroke="#272744" stroke-width="2" stroke-miterlimit="10" stroke-linecap="round"/>
<path d="M7.7998 8.7998C8.35209 8.7998 8.7998 8.35209 8.7998 7.7998C8.7998 7.24752 8.35209 6.7998 7.7998 6.7998C7.24752 6.7998 6.7998 7.24752 6.7998 7.7998C6.7998 8.35209 7.24752 8.7998 7.7998 8.7998Z" stroke="#272744" stroke-width="2" stroke-miterlimit="10"/>
<path d="M7.7002 19.97V12.75" stroke="#272744" stroke-width="2" stroke-miterlimit="10" stroke-linecap="round"/>
<path d="M4.68994 17.25L7.58994 19.93C7.61966 19.9581 7.65902 19.9738 7.69994 19.9738C7.74086 19.9738 7.78023 19.9581 7.80994 19.93L10.7199 17.25" stroke="#272744" stroke-width="2" stroke-miterlimit="10" stroke-linecap="round"/>
</svg>
