<svg width="25" height="20" viewBox="0 0 25 20" fill="none" xmlns="http://www.w3.org/2000/svg">
<path d="M12.3407 6.03191L10.8865 7.48606C10.6208 7.75234 10.4716 8.11314 10.4716 8.48931C10.4716 8.86548 10.6208 9.22629 10.8865 9.49256L-nan -nanL-nan -nanL10.8865 9.49256C11.1547 9.75896 11.5174 9.90847 11.8954 9.90847C12.2734 9.90847 12.6361 9.75896 12.9043 9.49256L14.5245 7.8508C14.5635 7.8113 14.6271 7.81109 14.6664 7.85033L18.8982 12.0822C18.9373 12.1212 19.0006 12.1212 19.0396 12.0822L21.1527 9.96909C21.1918 9.93003 21.2551 9.93003 21.2941 9.96909L21.412 10.0869C21.451 10.126 21.5144 10.126 21.5534 10.0869L23.4295 8.21082C23.4687 8.17167 23.4686 8.10817 23.4293 8.06915L16.9204 1.60441C16.8813 1.56558 16.8182 1.56569 16.7792 1.60465L12.4115 5.97238C12.3724 6.01147 12.309 6.01143 12.27 5.97229L7.92188 1.61309" stroke="#272744" stroke-width="2" stroke-miterlimit="10" stroke-linecap="round"/>
<path d="M12.3404 6.03244L7.90219 1.59427C7.86309 1.55517 7.79968 1.55522 7.76064 1.59439L1.2736 8.1035C1.23466 8.14257 1.23471 8.2058 1.27372 8.2448L3.15019 10.1213C3.18924 10.1603 3.25256 10.1603 3.29161 10.1213L3.40951 10.0034C3.44854 9.96435 3.51182 9.96432 3.55088 10.0033L11.2131 17.6544C11.521 17.958 11.9361 18.1282 12.3685 18.1282C12.801 18.1282 13.216 17.958 13.524 17.6544C13.8276 17.3464 13.9978 16.9314 13.9978 16.499C13.9978 16.0665 13.8276 15.6515 13.524 15.3435L12.3404 14.2163L13.6367 15.4675C13.9149 15.7408 14.2894 15.894 14.6794 15.894C15.0694 15.894 15.4439 15.7408 15.7221 15.4675C15.992 15.1898 16.1431 14.8177 16.1431 14.4304C16.1431 14.0431 15.992 13.6711 15.7221 13.3934L14.3469 12.0181L15.6657 13.3483C15.955 13.6353 16.346 13.7964 16.7535 13.7964C17.1611 13.7964 17.5521 13.6353 17.8413 13.3483C18.1497 13.036 18.3227 12.6148 18.3227 12.1759C18.3227 11.7371 18.1497 11.3159 17.8413 11.0036L16.8494 10.0567" stroke="#272744" stroke-width="2" stroke-miterlimit="10" stroke-linecap="round"/>
<path d="M21.2005 9.93297L14.8203 3.55273" stroke="#272744" stroke-width="2" stroke-miterlimit="10" stroke-linecap="round"/>
<path d="M3.51367 9.93297L9.88263 3.55273" stroke="#272744" stroke-width="2" stroke-miterlimit="10" stroke-linecap="round"/>
</svg>
