<svg width="10" height="16" viewBox="0 0 10 16" fill="none" xmlns="http://www.w3.org/2000/svg">
<path d="M2.04024 0.626551C1.64971 0.236026 1.01655 0.236026 0.626023 0.626551C0.235499 1.01707 0.235499 1.65024 0.626023 2.04076L2.04024 0.626551ZM7.9998 8.00032L8.7069 8.70743L9.41401 8.00032L8.7069 7.29322L7.9998 8.00032ZM0.626023 13.9599C0.235499 14.3504 0.235499 14.9836 0.626023 15.3741C1.01655 15.7646 1.64971 15.7646 2.04024 15.3741L0.626023 13.9599ZM0.626023 2.04076L7.29269 8.70743L8.7069 7.29322L2.04024 0.626551L0.626023 2.04076ZM7.29269 7.29322L0.626023 13.9599L2.04024 15.3741L8.7069 8.70743L7.29269 7.29322Z" fill="#FF7E27"/>
</svg>
