<svg width="73" height="46" viewBox="0 0 73 46" fill="none" xmlns="http://www.w3.org/2000/svg">
<path d="M28.4805 32.0996C28.4805 31.8996 28.4805 31.7004 28.4805 31.4004L28.5801 29.4004" fill="white"/>
<path d="M34.6809 36.2014C33.9809 30.7014 30.5805 24.5999 28.7805 22.0999C28.1805 21.1999 27.0793 20.901 26.0793 21.301C25.1793 21.601 24.5809 22.6002 24.6809 23.5002C24.9809 28.0002 24.7793 32.5006 24.0793 36.9006C23.8793 37.9006 24.4797 38.9014 25.4797 39.2014C26.4797 39.4014 27.4805 38.801 27.7805 37.801V37.7014C27.8805 37.2014 27.9797 36.6999 27.9797 36.0999L30.6809 35.5999C30.7809 35.9999 30.7801 36.3014 30.8801 36.7014C30.9801 37.7014 31.8801 38.5006 32.8801 38.4006C33.8801 38.3006 34.6793 37.4006 34.5793 36.4006C34.6793 36.3006 34.6809 36.3014 34.6809 36.2014ZM28.4797 32.0999V31.4006L28.5793 29.4006C28.9793 30.2006 29.2809 31.0006 29.6809 31.9006L28.4797 32.0999Z" fill="white"/>
<path d="M41.0806 28.702C41.0806 28.402 41.0821 28.1012 41.1821 27.9012L41.3813 24.702V24.3016C41.3813 24.0016 41.3813 23.7012 41.3813 23.4012L41.0806 28.702ZM49.6821 35.8016C49.0821 31.5016 47.9809 27.4016 46.4809 23.3016C45.1809 19.7016 43.5821 16.2012 41.6821 12.9012C41.0821 11.8012 39.7806 11.402 38.5806 11.702C37.4806 12.102 36.6817 13.1016 36.7817 14.3016C36.8817 21.3016 36.5821 28.4012 35.6821 35.4012C35.4821 36.7012 36.3821 37.9004 37.6821 38.1004C37.6821 38.1004 37.6817 38.1004 37.7817 38.1004C39.0817 38.2004 40.2813 37.3008 40.3813 36.0008C40.4813 35.2008 40.5821 34.4008 40.6821 33.5008L44.4809 33.1004C44.6809 34.2004 44.8809 35.3016 44.9809 36.3016C45.0809 37.5016 46.0817 38.4012 47.2817 38.4012C47.3817 38.4012 47.4806 38.4012 47.5806 38.4012C48.8806 38.2012 49.8821 37.1016 49.6821 35.8016ZM41.0806 28.702V27.9012L41.2817 24.702V24.3016V23.4012C41.4817 24.0012 41.7809 24.5004 41.9809 25.1004C42.3809 26.3004 42.7821 27.5004 43.1821 28.6004L41.0806 28.702Z" fill="white"/>
<path d="M72.7819 39.4997C70.6819 24.1997 62.9815 7.49971 59.3815 1.99971C58.2815 0.29971 56.2815 -0.399508 54.3815 0.300492C52.5815 1.00049 51.4823 2.80049 51.6823 4.80049C52.2823 12.4005 52.3807 24.9001 50.5807 34.9001C50.1807 36.7001 51.3819 38.5997 53.2819 38.9997C55.0819 39.2997 56.7823 38.1005 57.1823 36.3005V36.2009C57.3823 34.7009 57.6815 33.3009 57.8815 31.7009L64.2819 30.9001C65.1819 34.1001 65.7819 37.2997 66.2819 40.4997C66.4819 42.1997 67.8807 43.4997 69.5807 43.4997C69.7807 43.4997 69.8807 43.4997 70.0807 43.4997C71.7807 43.1997 73.0819 41.3997 72.7819 39.4997ZM58.4811 24.5993C58.7811 21.2993 58.7819 15.4001 58.7819 15.4001C60.1819 18.7001 62.1823 24.2009 62.1823 24.2009L58.4811 24.5993Z" fill="white"/>
<path d="M12.1826 36.5998L9.78219 32.2014C9.58219 31.8014 9.08258 31.7006 8.68258 31.9006L6.3818 33.0998C5.9818 33.2998 5.88102 33.8014 6.08102 34.2014L8.58102 38.801V38.9006C8.98102 39.7006 8.6818 40.6998 7.8818 41.0998C7.0818 41.4998 6.08258 41.2006 5.68258 40.4006L3.8818 37.0002C3.3818 36.0002 2.08102 35.6014 1.08102 36.2014C0.0810204 36.7014 -0.317808 38.0002 0.282192 39.0002L2.08102 42.301C3.08102 44.201 5.08258 45.301 7.18258 45.301C8.18258 45.301 9.0818 45.0998 9.8818 44.5998C12.5818 42.9998 13.6826 39.4998 12.1826 36.5998ZM9.68258 34.801C9.68258 34.901 9.58102 34.9006 9.58102 34.9006H8.98141C8.88141 34.9006 8.8818 34.9002 8.8818 35.0002L8.58102 35.5002C8.58102 35.5002 8.48141 35.4998 8.48141 35.5998C8.38141 35.5998 8.28219 35.6002 8.28219 35.5002L8.08102 35.0002C8.08102 34.9002 7.98141 34.9006 7.98141 34.9006L7.48141 34.7014C7.48141 34.7014 7.3818 34.6998 7.3818 34.5998C7.3818 34.4998 7.3818 34.4006 7.3818 34.4006L7.8818 34.0998L7.98141 34.0002V33.4006V33.301H8.08102H8.18258L8.68258 33.5998C8.68258 33.5998 8.68219 33.5998 8.78219 33.5998L9.28219 33.4006H9.3818C9.4818 33.4006 9.48141 33.4998 9.48141 33.5998L9.28219 34.0998V34.2014L9.58102 34.5998C9.68102 34.6998 9.68258 34.801 9.68258 34.801Z" fill="white"/>
<path d="M5.55938 29.8363L5.75937 30.3363L5.85938 30.4363L6.35938 30.5363C6.45938 30.4363 6.55938 30.5363 6.55938 30.5363V30.6363L6.15937 31.0363V31.1363L6.25937 31.6363C6.25937 31.7363 6.25937 31.7363 6.15937 31.7363H6.05937L5.55938 31.5363H5.45937L5.05937 31.8363C4.95937 31.8363 4.95938 31.8363 4.85938 31.8363V31.7363L4.95937 31.2363V31.1363L4.55938 30.8363C4.45938 30.8363 4.45938 30.7363 4.55938 30.6363C4.55938 30.6363 4.55937 30.6363 4.65937 30.6363L5.15938 30.5363C5.15938 30.5363 5.25937 30.5363 5.25937 30.4363L5.45937 29.9363C5.35937 29.8363 5.45938 29.7363 5.55938 29.8363Z" fill="white"/>
<path d="M8.70156 30.5914V30.6914C8.70156 30.6914 8.70156 30.6914 8.60156 30.6914H8.20156C8.20156 30.6914 8.10156 30.6914 8.10156 30.7914L8.00156 31.1914C8.00156 31.1914 7.90156 31.2914 7.90156 31.1914L7.70156 30.7914C7.70156 30.7914 7.70156 30.7914 7.60156 30.7914H7.20156L7.10156 30.6914L7.50156 30.2914C7.50156 30.2914 7.50156 30.2914 7.50156 30.1914L7.40156 29.7914C7.40156 29.7914 7.40156 29.6914 7.50156 29.6914C7.50156 29.6914 7.50156 29.6914 7.60156 29.6914L7.90156 29.8914H8.00156L8.30156 29.6914H8.40156C8.40156 29.6914 8.40156 29.6914 8.40156 29.7914V30.1914V30.2914L8.70156 30.5914Z" fill="white"/>
<path d="M6.47773 27.6831L6.57773 27.9831C6.57773 27.9831 6.57773 27.9831 6.67773 28.0831L6.97773 28.1831L7.07773 28.2831L6.67773 28.4831C6.67773 28.4831 6.67773 28.4831 6.67773 28.5831V28.8831C6.67773 28.8831 6.67773 28.9831 6.57773 28.9831L6.27773 28.6831C6.27773 28.6831 6.27773 28.6831 6.17773 28.6831L5.87773 28.7831H5.77773C5.77773 28.7831 5.77773 28.7831 5.77773 28.6831L5.87773 28.3831V28.2831L5.67773 28.0831V27.9831H5.97773H6.07773L6.27773 27.6831C6.27773 27.6831 6.37773 27.5831 6.47773 27.6831C6.47773 27.6831 6.37773 27.6831 6.47773 27.6831Z" fill="white"/>
<path d="M4.15694 27.0581L4.35694 27.2581C4.35694 27.2581 4.35694 27.2581 4.45694 27.2581L4.65694 27.1581H4.75694L4.65694 27.4581C4.65694 27.4581 4.65694 27.4581 4.65694 27.5581L4.75694 27.7581V27.8581H4.45694C4.45694 27.8581 4.45694 27.8581 4.35694 27.8581L4.25694 28.0581H4.15694L4.05694 27.7581L3.85694 27.6581C3.85694 27.6581 3.75694 27.5581 3.85694 27.5581L4.05694 27.4581C4.05694 27.4581 4.05694 27.4581 4.05694 27.3581V27.0581C4.05694 27.0581 4.05694 26.9581 4.15694 27.0581C4.15694 27.0581 4.15694 26.9581 4.15694 27.0581Z" fill="white"/>
<path d="M63.8809 0.0996094V0.701172C63.8809 0.701172 63.8805 0.800781 63.9805 0.800781H64.4805C64.4805 0.800781 64.5801 0.800391 64.5801 0.900391V2.90039C64.5801 2.90039 64.5816 3 64.6816 3H65.2812C65.2812 3 65.3809 3.00039 65.3809 2.90039V0.900391C65.3809 0.900391 65.3805 0.800781 65.4805 0.800781H65.9805C65.9805 0.800781 66.0801 0.801172 66.0801 0.701172V0.0996094C66.0801 0.0996094 66.0805 0 65.9805 0L63.8809 0.0996094Z" fill="white"/>
<path d="M68.5801 0.0996094L67.8809 1.30078H67.7812L67.0801 0.0996094H66.3809C66.3809 0.0996094 66.2813 0.101172 66.2813 0.201172V3C66.2813 3 66.2809 3.09961 66.3809 3.09961H66.9805C66.9805 3.09961 67.0801 3.1 67.0801 3V1.80078C67.0801 1.80078 67.0816 1.70117 67.1816 1.70117C67.1816 1.70117 67.1812 1.70117 67.2812 1.70117L67.7812 2.59961C67.7812 2.59961 67.7809 2.59961 67.8809 2.59961H68.0801C68.0801 2.59961 68.0816 2.59961 68.1816 2.59961L68.6816 1.70117H68.7812C68.7812 1.70117 68.7812 1.70078 68.7812 1.80078V3C68.7812 3 68.7809 3.09961 68.8809 3.09961H69.4805C69.4805 3.09961 69.5801 3.1 69.5801 3V0.201172C69.5801 0.201172 69.5805 0.0996094 69.4805 0.0996094H68.5801C68.5801 0.0996094 68.6801 0.0996094 68.5801 0.0996094Z" fill="white"/>
<path d="M22.6824 37.0009C21.9824 36.3009 21.182 35.6009 20.282 35.0009C20.982 34.2009 21.3816 33.1006 21.3816 32.1006C21.3816 30.0006 19.9812 28.3017 17.9812 27.8017C15.9812 27.3017 13.8812 28.3021 12.9813 30.2021C12.3812 31.6021 12.3812 33.2021 12.9813 34.7021C13.6813 36.4021 14.1813 38.2013 14.4813 39.9013C14.6813 40.9013 15.5809 41.5017 16.5809 41.3017C17.5809 41.1017 18.2809 40.1006 18.0809 39.1006C17.9809 38.5006 17.882 38.0009 17.782 37.5009C18.682 38.0009 19.582 38.7009 20.282 39.5009C20.982 40.2009 22.0816 40.2009 22.8816 39.5009C23.3816 38.9009 23.3824 37.7009 22.6824 37.0009ZM17.6824 32.6006C17.3824 33.2006 16.382 33.4009 16.282 33.5009C16.282 33.5009 15.9813 32.8017 15.9813 32.3017C15.9813 32.2017 15.9809 32.0013 16.0809 31.9013C16.2809 31.5013 16.882 31.3009 17.282 31.5009C17.682 31.6009 17.8824 32.2006 17.6824 32.6006Z" fill="white"/>
</svg>
