<svg width="4" height="20" viewBox="0 0 4 20" fill="none" xmlns="http://www.w3.org/2000/svg">
<path d="M2.0002 2.8002C1.55837 2.8002 1.2002 2.44202 1.2002 2.0002C1.2002 1.55837 1.55837 1.2002 2.0002 1.2002C2.44202 1.2002 2.8002 1.55837 2.8002 2.0002C2.8002 2.44202 2.44202 2.8002 2.0002 2.8002Z" stroke="#272744" stroke-width="2"/>
<path d="M2.0002 10.8002C1.55837 10.8002 1.2002 10.442 1.2002 10.0002C1.2002 9.55837 1.55837 9.20019 2.0002 9.20019C2.44202 9.20019 2.80019 9.55837 2.80019 10.0002C2.80019 10.442 2.44202 10.8002 2.0002 10.8002Z" stroke="#272744" stroke-width="2"/>
<path d="M2.00019 18.8002C1.55837 18.8002 1.2002 18.442 1.2002 18.0002C1.2002 17.5584 1.55837 17.2002 2.00019 17.2002C2.44202 17.2002 2.80019 17.5584 2.80019 18.0002C2.80019 18.442 2.44202 18.8002 2.00019 18.8002Z" stroke="#272744" stroke-width="2"/>
</svg>
