<svg width="24" height="24" viewBox="0 0 24 24" fill="none" xmlns="http://www.w3.org/2000/svg">
<path d="M16.4 5.30987C15.9993 4.8256 15.4967 4.43574 14.928 4.16814C14.3593 3.90053 13.7385 3.76178 13.11 3.76178C12.4814 3.76178 11.8607 3.90053 11.2919 4.16814C10.7232 4.43574 10.2206 4.8256 9.81995 5.30987C9.79161 5.36206 9.74971 5.40563 9.69867 5.436C9.64763 5.46636 9.58934 5.48239 9.52995 5.48239C9.47056 5.48239 9.41227 5.46636 9.36123 5.436C9.31019 5.40563 9.26829 5.36206 9.23995 5.30987C8.85919 4.84726 8.38492 4.47039 7.84826 4.20399C7.31159 3.93758 6.72466 3.78765 6.12598 3.76404C5.52729 3.74044 4.93038 3.84368 4.3744 4.067C3.81843 4.29033 3.31596 4.62868 2.89995 5.05987C2.81817 5.13835 2.74135 5.22184 2.66995 5.30987C1.80339 6.34614 1.32861 7.65402 1.32861 9.00487C1.32861 10.3557 1.80339 11.6636 2.66995 12.6999L9.10995 19.9999C9.16158 20.0592 9.22534 20.1068 9.29693 20.1394C9.36852 20.1721 9.44628 20.1889 9.52495 20.1889C9.60362 20.1889 9.68138 20.1721 9.75297 20.1394C9.82456 20.1068 9.88832 20.0592 9.93995 19.9999L16.4 12.6999C17.2665 11.6636 17.7413 10.3557 17.7413 9.00487C17.7413 7.65402 17.2665 6.34614 16.4 5.30987Z" stroke="#272744" stroke-width="2" stroke-miterlimit="10" stroke-linecap="round"/>
<path d="M20.3901 4.75977H22.6301" stroke="#272744" stroke-width="2" stroke-miterlimit="10" stroke-linecap="round"/>
<path d="M21.3398 12H22.6798" stroke="#272744" stroke-width="2" stroke-miterlimit="10" stroke-linecap="round"/>
<path d="M17.2002 19.2402H22.6802" stroke="#272744" stroke-width="2" stroke-miterlimit="10" stroke-linecap="round"/>
</svg>
